<svg xmlns="http://www.w3.org/2000/svg" version="1.1" clip-rule="evenodd" fill-rule="evenodd" stroke-linejoin="round" stroke-miterlimit="2" viewBox="0 0 512 512" xml:space="preserve" width="512" height="512"><metadata><rdf:RDF xmlns:rdf="http://www.w3.org/1999/02/22-rdf-syntax-ns#" xmlns:dc="http://purl.org/dc/elements/1.1/"><rdf:Description><dc:creator>RealFaviconGenerator</dc:creator><dc:source>https://realfavicongenerator.net</dc:source></rdf:Description></rdf:RDF></metadata><rect width="512" height="512" fill="none" stroke-width="2"></rect><g id="primary" transform="matrix(2.2446 0 0 2.2446 -1.4811 -5.3139)">
            <g transform="rotate(2.8068 66.728 49.013)">
                <path d="m89.047 162.06-31.049-29.298 6.375-6.958c1.256 1.271 6.382 5.812 9.392 11.833 1.149 2.297 3.148 1.612 4.482 6.947 1.928 7.714 9.45 5.909 10.532 14.566 0.156 1.251 0.216 2.162 0.268 2.91z" fill="#af3821"></path>
            </g>
            <g transform="matrix(.80762 -.13548 .13548 .80762 -4.9732 23.593)">
                <path d="m98.919 104.12 13.841-15.108c-0.184 3.205-0.36 6.147-0.384 6.196-2.044 4.087-1.52 4.098-2.642 8.653-7.782 0.256-9.898 0.251-10.815 0.259z" fill="#af3821"></path>
            </g>
            <g transform="matrix(.89101 0 0 .89101 .74819 4.2092)">
                <path d="m103.22 103.96c1.455-0.025 3.837-0.082 7.893-0.215 1.031-4.187 0.55-4.197 2.428-7.953 0.023-0.045 0.184-2.748 0.353-5.694l12.856-14.033 44.639 47.905c0.11 0.365 0.205 0.776 0.285 1.252 0.035 0.213 2.248 3.532 2.45 3.835 0.909 1.364-0.107 1.438 0 1.491 1.212 0.607 0.423 1.544 2.602 2.466 1.696 2.914 2.799 2.492 2.812 2.495l-30.782 30.781-15.135-15.523c-0.033-0.502-0.146-0.783-0.192-0.898-0.28-0.7-0.166-1.309-0.175-1.317-0.426-0.427-0.517-0.354-0.834-0.813l14.576-16.659-22.006-21.126-27.728 33.45 41.198 38.029 0.091 0.158c0.405 0.698 0.723 1.652 0.772 1.801 0.793 2.38 2.761 1.596 2.964 4.642 0.95 0.671 0.832 0.889 2.631 1.339 0.12 0.03 1.082 0.7 2.46 0.292l1.378 1.272 53.255-54.575-61.177-61.177 18.045-19.806 10.333 10.333c-0.906 1.042-3.413 3.97-6.147 6.563 0.104 0.042 2.18-0.491 0.802 2.265-1.091 2.184-1.347 2.007-2.107 4.342 0.482-0.297 4.633-2.855 5.461-4.509 0.204-0.408 0.435 0.033 5.197-2.348 0.727-0.363 1.291-0.81 1.839-1.268l63.845 63.844-62.307 64.176c-1.442 0.288-2.814 0.386-3.088 0.406-4.955 0.354-3.265 5.44-3.092 5.959l-19.538 20.125-0.637-0.6c-0.533-1.081-0.534-1.165-0.895-2.246-0.046-0.137-1.511-1.603-1.646-1.738-3.754-3.754-2.944-4.408-6.677-8.14-0.155-0.155-2.675-3.259-3.476-3.659l-6.768-6.768c-2.131-2.131-3.788-1.377-5.762-2.561-2.222-1.333-2.977-1.816-4.139-2.595l-20.978-19.795c-0.058-0.84-0.125-1.862-0.301-3.266-1.214-9.716-9.656-7.69-11.82-16.348-1.497-5.987-3.741-5.218-5.03-7.796-3.379-6.757-9.131-11.854-10.541-13.281l24.562-26.81c0.658-0.152 1.372-0.367 1.545-0.829 1.449-0.486 3.085-0.9 4.479-2.295 0.164-0.164-0.235-0.37 1.227-2.58zm86.8-0.369c-1.772-1.912-3.895-4.034-4.225-4.365 0.33 0.331 2.453 2.453 4.225 4.365-0.419-0.246-0.826-0.469-1.22-0.666 0.394 0.197 0.801 0.42 1.22 0.666 1.255 1.354 2.335 2.602 2.479 3.033 2.965 8.895 9.334 10.004 9.94 13.639 0.192 1.153-0.13 1.554 2.774 3.006 10.276 5.138 10.198 7.423 14.796 12.021 10.943 10.943-16.035-23.496-29.989-31.699z" fill="#f5853f"></path>
            </g>
        </g><g id="secondary" transform="matrix(2.2446 0 0 2.2446 -1.4811 -5.3139)">
            <path d="m24.178 128.22 55.952-60.216c1.209-0.309 2.145-0.19 4.555-0.35-0.877-1.128-1.436-2.01-1.741-2.688l1.781-1.923c2.451 0.409 6.234 2.301 6.496 2.432 0.519 0.26 12.663 0.291 12.76 0 0.144-0.431 0.532-1.595 4.499-0.602l-64.608 70.413 41.956 40.643 2.753-3.571 13.799 12.444-9.438 10.717-0.094-0.033c-8.833-2.944-6.894-8.89-18.584-13.9-1.191-0.51 1.983 2.739 1.058 1.813-2.419-2.419-14.7-6.39-17.98-9.669-0.855-0.855-2.181-1.121-3.099-1.237l-37.724-36.031 4.038-4.345c3.475 1.392 10.441 8.205 14.361 10.165 0.163 0.082 7.203 5.927 8.688 6.422 0.573 0.191-2.054-0.685-3.966-6.422-0.484-1.449-1.366-0.575-2.267-2.077-0.958-1.598-2.275-0.674-13.195-11.985z" fill="#45496a"></path>
            <g transform="rotate(4.2099 156.63 67.943)">
                <path d="m84.725 63.044 29.764-32.139 19.353 18.627-13.357 16.532-7.484-6.136-4.521 4.946c-3.967-0.993-4.355 0.171-4.499 0.602-0.097 0.291-12.241 0.26-12.76 0-0.262-0.131-4.045-2.023-6.496-2.432z" fill="#45496a"></path>
            </g>
        </g></svg>